# xmcd
#
# Track frame offsets: 
#        150
#        16190
#        31550
#        46670
#        63925
#        81664
#        94766
#        108428
#        124048
#        135790
#        151385
#        165817
#        179927
#        192573
#        206119
#        222680
#        236613
#        250222
#        264880
#        281567
#        300100
#        312931
#
# Disc length: 4318 seconds
#
# Revision: 0
# Processed by: cddbd v1.5.2PL0 Copyright (c) Steve Scherf et al.
# Submitted via: ExactAudioCopy v1.3
#
DISCID=2610dc16
DTITLE=Various Artist - Hit Country Weekend
DYEAR=2016
DGENRE=Country
TTITLE0=Adam Brand and the Outlaws - Fat Bottomed Girls
TTITLE1=Carrie Underwood  - Good Girl
TTITLE2=The Road Hammers (feat. Tim Hicks) - One Horse Town
TTITLE3=Billy Currington - We Are Tonight
TTITLE4=Brad Paisley - Limes
TTITLE5=Jody Direen - Loud
TTITLE6=Kenny Chesney - American Kids
TTITLE7=Laura Bell Bundy - Giddy On Up
TTITLE8=Brett Eldredge - Lose My Mind
TTITLE9=Jasmine Rae - Hunky Country Boys
TTITLE10=Tim Hicks - Get By
TTITLE11=Victoria Avenue - Available
TTITLE12=Miranda Lambert with Carrie Underwood - Somethin Bad
TTITLE13=The McClymonts - Kick It Up
TTITLE14=Drew McAlister - Till Summer Slips Away
TTITLE15=Caitlyn Shadbolt - Maps out the Window
TTITLE16=The Wolfe Brothers - That Kinda Night
TTITLE17=The Shires - All Over Again
TTITLE18=Blake Shelton - Neon Light
TTITLE19=Dean Brody - Hillbilly
TTITLE20=Amber Lawrence - Honeysuckle
TTITLE21=The Sunny Cowgirls - Lookin Out My Back Door
EXTD=
EXTT0=
EXTT1=
EXTT2=
EXTT3=
EXTT4=
EXTT5=
EXTT6=
EXTT7=
EXTT8=
EXTT9=
EXTT10=
EXTT11=
EXTT12=
EXTT13=
EXTT14=
EXTT15=
EXTT16=
EXTT17=
EXTT18=
EXTT19=
EXTT20=
EXTT21=
PLAYORDER=
